{"title":"Snow.White.And.The.Huntsman.2012.TS.V2.XVID.AC3-CrEwSaDe","uid":7341908,"size":2387604580,"categoryP":"video","categoryS":"movies","magnet":"?xt=urn:btih:9f885db84fb6cd8f4aff82056b5a0fecb83c2263&amp;dn=Snow.White.And.The.Huntsman.2012.TS.V2.XVID.AC3-CrEwSaDe&amp;tr=udp%3A%2F%2Ftracker.openbittorrent.com%3A80&amp;tr=udp%3A%2F%2Fopen.demonii.com%3A1337&amp;tr=udp%3A%2F%2Ftracker.coppersurfer.tk%3A6969&amp;tr=udp%3A%2F%2Fexodus.desync.com%3A6969","seeders":2,"leechers":1,"uploader":"tykoon123","files":4,"time":1339266144,"description":"\n******************************************************************************************************\n\nEncoder ..........: Tommie Cook\nVideo Codec.......:AVI\nVideo Bitrate.....: 2500 Kbps\nAudio Codec.......: AC-3\nAudio Bitrate.....: 192 Kbps\nResolution........: 720 x 340\nRuntime...........: 1h 16mn\nRelease Date......: N/A\nTheatre Date......: 1 June 2012 (USA)\nLanguage..........: English\nSubtitles.........: n/a\nIMDB Rating.......: 6.7/10\nIMDb URL..........: http://www.imdb.com/title/tt1735898/\n\n_______________________________________________________________________________\n\nGeneral\nComplete name : Snow.White.and.the.Huntsman.2012.TS.V2.XVID AC3-CrEwSaDe.avi\nFormat : AVI\nFormat/Info : Audio Video Interleave\nFormat profile : OpenDML\nFile size : 2.21 GiB\nDuration : 1h 57mn\nOverall bit rate : 2 704 Kbps\nWriting library : VirtualDub build 32842/release\n\n\nVideo\n________________________________________________________________________________\n\nVideo\n\nVideo\nID : 0\nFormat : AVC\nFormat/Info : Advanced Video Codec\nFormat profile : &lt;a class=&quot;__cf_email__&quot; href=&quot;/cdn-cgi/l/email-protection&quot; data-cfemail=&quot;cf87a6a8a78f83fce1ff&quot;&gt;[email&amp;#160;protected]&lt;/a&gt;&lt;script cf-hash='f9e31' type=&quot;text/javascript&quot;&gt;\n/* &lt;![CDATA[ */!function(){try{var t=&quot;currentScript&quot;in document?document.currentScript:function(){for(var t=document.getElementsByTagName(&quot;script&quot;),e=t.length;e--;)if(t[e].getAttribute(&quot;cf-hash&quot;))return t[e]}();if(t&amp;&amp;t.previousSibling){var e,r,n,i,c=t.previousSibling,a=c.getAttribute(&quot;data-cfemail&quot;);if(a){for(e=&quot;&quot;,r=parseInt(a.substr(0,2),16),n=2;a.length-n;n+=2)i=parseInt(a.substr(n,2),16)^r,e+=String.fromCharCode(i);e=document.createTextNode(e),c.parentNode.replaceChild(e,c)}}}catch(u){}}();/* ]]&gt; */&lt;/script&gt;\nFormat settings, CABAC : Yes\nFormat settings, ReFrames : 4 frames\nCodec ID : H264\nDuration : 1h 57mn\nBit rate : 2 500 Kbps\nWidth : 720 pixels\nHeight : 340 pixels\nDisplay aspect ratio : 2.118\nFrame rate : 29.970 fps\nColor space : YUV\nChroma subsampling : 4:2:0\nBit depth : 8 bits\nScan type : Progressive\nBits/(Pixel*Frame) : 0.341\nStream size : 2.04 GiB (92%)\n\n\n_________________________________________________________________________________\n\nAudio\nID : 1\nFormat : AC-3\nFormat/Info : Audio Coding 3\nMode extension : CM (complete main)\nFormat settings, Endianness : Big\nCodec ID : 2000\nDuration : 1h 57mn\nBit rate mode : Constant\nBit rate : 192 Kbps\nChannel(s) : 2 channels\nChannel positions : Front: L R\nSampling rate : 48.0 KHz\nBit depth : 16 bits\nCompression mode : Lossy\nStream size : 161 MiB (7%)\nAlignment : Aligned on interleaves\nInterleave, duration : 33 ms (1.00 video frame)\nInterleave, preload duration : 512 ms\n\n_________________________________________________________________________________\n\n\nSOURCES:\n\nVIDEO:German Cam, Thanks\nAUDIO:Dragon Exclusive, Thanks\n_________________________________________________________________________________\n\n\nPlot:\nIn a twist to the fairy tale, the Huntsman ordered to take Snow White into the woods to be killed winds up becoming her protector and mentor in a quest to vanquish the Evil Queen\n\nSCREENS:\n &lt;a href=&quot;\nhttp://i1179.photobucket.com/albums/x394/crewsade/tommiecook/2-6.png&quot; rel=&quot;nofollow&quot; target=&quot;_NEW&quot;&gt;\nhttp://i1179.photobucket.com/albums/x394/crewsade/tommiecook/2-6.png&lt;/a&gt; &lt;a href=&quot;\nhttp://i1179.photobucket.com/albums/x394/crewsade/tommiecook/3-7.png&quot; rel=&quot;nofollow&quot; target=&quot;_NEW&quot;&gt;\nhttp://i1179.photobucket.com/albums/x394/crewsade/tommiecook/3-7.png&lt;/a&gt; &lt;a href=&quot;\nhttp://i1179.photobucket.com/albums/x394/crewsade/tommiecook/4-5.png&quot; rel=&quot;nofollow&quot; target=&quot;_NEW&quot;&gt;\nhttp://i1179.photobucket.com/albums/x394/crewsade/tommiecook/4-5.png&lt;/a&gt; &lt;a href=&quot;\nhttp://i1179.photobucket.com/albums/x394/crewsade/tommiecook/5-4.png&quot; rel=&quot;nofollow&quot; target=&quot;_NEW&quot;&gt;\nhttp://i1179.photobucket.com/albums/x394/crewsade/tommiecook/5-4.png&lt;/a&gt; &lt;a href=&quot;\nhttp://i1179.photobucket.com/albums/x394/crewsade/tommiecook/6-4.png&quot; rel=&quot;nofollow&quot; target=&quot;_NEW&quot;&gt;\nhttp://i1179.photobucket.com/albums/x394/crewsade/tommiecook/6-4.png&lt;/a&gt; &lt;a href=&quot;\nhttp://i1179.photobucket.com/albums/x394/crewsade/tommiecook/7-3.png&quot; rel=&quot;nofollow&quot; target=&quot;_NEW&quot;&gt;\nhttp://i1179.photobucket.com/albums/x394/crewsade/tommiecook/7-3.png&lt;/a&gt;","torrent":{"xt":"urn:btih:9f885db84fb6cd8f4aff82056b5a0fecb83c2263","amp;dn":"Snow.White.And.The.Huntsman.2012.TS.V2.XVID.AC3-CrEwSaDe","amp;tr":["udp%3A%2F%2Ftracker.openbittorrent.com%3A80","udp%3A%2F%2Fopen.demonii.com%3A1337","udp%3A%2F%2Ftracker.coppersurfer.tk%3A6969","udp%3A%2F%2Fexodus.desync.com%3A6969"],"infoHash":"9f885db84fb6cd8f4aff82056b5a0fecb83c2263","infoHashBuffer":{"type":"Buffer","data":[159,136,93,184,79,182,205,143,74,255,130,5,107,90,15,236,184,60,34,99]},"announce":[],"urlList":[]}}